<svg xmlns="http://www.w3.org/2000/svg" xmlns:xlink="http://www.w3.org/1999/xlink" width="1080" zoomAndPan="magnify" viewBox="0 0 810 809.999993" height="1080" preserveAspectRatio="xMidYMid meet" version="1.0"><defs><g/><clipPath id="1aea88b003"><path d="M 133.890625 123.101562 L 676 123.101562 L 676 650.53125 L 133.890625 650.53125 Z M 133.890625 123.101562 " clip-rule="nonzero"/></clipPath><clipPath id="cf76abd984"><path d="M 133.894531 123.101562 L 676.105469 123.101562 L 676.105469 650.351562 L 133.894531 650.351562 Z M 133.894531 123.101562 " clip-rule="nonzero"/></clipPath></defs><g clip-path="url(#1aea88b003)"><path fill="#ffffff" d="M 133.890625 123.101562 L 675.746094 123.101562 L 675.746094 650.53125 L 133.890625 650.53125 Z M 133.890625 123.101562 " fill-opacity="1" fill-rule="nonzero"/></g><g clip-path="url(#cf76abd984)"><path stroke-linecap="butt" transform="matrix(0.75, 0, 0, 0.75, 133.893556, 123.100298)" fill="none" stroke-linejoin="miter" d="M 0.00130038 0.00168626 L 722.949253 0.00168626 L 722.949253 703.236097 L 0.00130038 703.236097 Z M 0.00130038 0.00168626 " stroke="#d9d9d9" stroke-width="2" stroke-opacity="1" stroke-miterlimit="4"/></g><g fill="#000000" fill-opacity="1"><g transform="translate(306.459773, 637.658756)"><g><path d="M 62.125 -185.953125 L 8.1875 -185.953125 L 67.796875 -306.84375 L 129.28125 -306.84375 L 188.890625 -185.953125 L 134.75 -185.953125 L 100.75 -256.265625 L 96.34375 -256.265625 Z M 62.125 -185.953125 "/></g></g></g></svg>