<svg xmlns="http://www.w3.org/2000/svg" xmlns:xlink="http://www.w3.org/1999/xlink" width="1080" zoomAndPan="magnify" viewBox="0 0 810 809.999993" height="1080" preserveAspectRatio="xMidYMid meet" version="1.0"><defs><clipPath id="84f7f2a1d8"><path d="M 112.222656 174.414062 L 697.972656 174.414062 L 697.972656 635.664062 L 112.222656 635.664062 Z M 112.222656 174.414062 " clip-rule="nonzero"/></clipPath></defs><g clip-path="url(#84f7f2a1d8)"><path fill="#161d6f" d="M 668.445312 252.363281 L 545.730469 252.363281 L 541.582031 223.039062 L 538.398438 203.273438 C 537.113281 195.308594 532.898438 188.707031 526.28125 183.191406 C 519.507812 177.546875 512.261719 174.589844 504.289062 174.589844 L 304.753906 174.589844 C 296.78125 174.589844 289.453125 177.453125 282.753906 183.191406 C 276.0625 188.929688 272.507812 195.664062 271.28125 203.273438 L 268.09375 223.039062 L 263.632812 252.363281 L 141.546875 252.363281 C 125.289062 252.363281 112.21875 265.433594 112.21875 281.050781 L 112.21875 606.175781 C 112.21875 622.429688 125.289062 635.496094 141.546875 635.496094 L 668.4375 635.496094 C 684.695312 635.496094 697.765625 622.429688 697.765625 606.175781 L 697.765625 281.050781 C 697.765625 265.433594 684.695312 252.363281 668.4375 252.363281 Z M 662.394531 600.125 L 147.292969 600.125 L 147.292969 287.429688 L 263.636719 287.429688 C 281.167969 287.429688 296.304688 274.386719 298.699219 257.46875 L 302.839844 228.144531 L 306.027344 209.976562 L 503.652344 209.976562 L 506.523438 228.144531 L 510.984375 257.46875 C 513.554688 274.359375 528.832031 287.429688 545.730469 287.429688 L 662.390625 287.429688 L 662.390625 600.125 Z M 662.394531 600.125 " fill-opacity="1" fill-rule="nonzero"/></g><path fill="#161d6f" d="M 605.652344 370.621094 C 620.953125 370.621094 633.703125 357.558594 633.703125 342.257812 C 633.703125 326.636719 621.273438 313.566406 605.652344 313.566406 C 590.035156 313.566406 577.601562 326.636719 577.601562 342.257812 C 577.601562 357.558594 590.351562 370.621094 605.652344 370.621094 Z M 605.652344 370.621094 " fill-opacity="1" fill-rule="nonzero"/><path fill="#161d6f" d="M 404.519531 296.671875 C 368.503906 296.671875 337.265625 309.734375 311.445312 335.554688 C 285.625 361.371094 272.554688 392.613281 272.554688 428.632812 C 272.554688 464.648438 285.625 495.886719 311.445312 521.707031 C 337.265625 547.527344 368.503906 559.738281 404.519531 560.277344 C 475.925781 561.332031 537.320312 499.402344 536.476562 428.632812 C 536.050781 392.292969 523.410156 361.371094 497.59375 335.550781 C 471.773438 309.734375 440.855469 296.671875 404.515625 296.671875 Z M 472.730469 497.164062 C 453.929688 515.964844 431.296875 525.207031 404.519531 525.207031 C 378.066406 525.207031 355.4375 515.964844 336.625 497.164062 C 317.816406 478.355469 308.578125 455.402344 308.578125 428.632812 C 308.578125 402.171875 317.816406 379.222656 336.625 360.414062 C 355.4375 341.609375 378.066406 332.050781 404.519531 332.050781 C 431.296875 332.050781 453.929688 341.609375 472.730469 360.414062 C 491.539062 379.222656 501.101562 402.171875 501.101562 428.632812 C 501.101562 455.40625 491.539062 478.355469 472.730469 497.164062 Z M 472.730469 497.164062 " fill-opacity="1" fill-rule="nonzero"/></svg>