<svg xmlns="http://www.w3.org/2000/svg" xmlns:xlink="http://www.w3.org/1999/xlink" width="1080" zoomAndPan="magnify" viewBox="0 0 810 809.999993" height="1080" preserveAspectRatio="xMidYMid meet" version="1.0"><defs><clipPath id="2c60792568"><path d="M 127.117188 127.117188 L 682.867188 127.117188 L 682.867188 682.867188 L 127.117188 682.867188 Z M 127.117188 127.117188 " clip-rule="nonzero"/></clipPath></defs><g clip-path="url(#2c60792568)"><path fill="#d85948" d="M 683.019531 405.109375 C 683.019531 558.601562 558.59375 683.03125 405.101562 683.03125 C 251.617188 683.03125 127.179688 558.601562 127.179688 405.109375 C 127.179688 251.628906 251.617188 127.191406 405.101562 127.191406 C 558.59375 127.191406 683.019531 251.628906 683.019531 405.109375 " fill-opacity="1" fill-rule="nonzero"/></g><path stroke-linecap="round" transform="matrix(0.21684, 0, 0, -0.21684, -55.896102, 866.10888)" fill="none" stroke-linejoin="round" d="M 2235.631279 2129.733067 L 2285.585232 2250.051296 L 2335.539185 2370.279454 L 2385.511152 2250.051296 L 2435.465105 2129.733067 " stroke="#ffffff" stroke-width="100" stroke-opacity="1" stroke-miterlimit="10"/><path stroke-linecap="round" transform="matrix(0.21684, 0, 0, -0.21684, -55.896102, 866.10888)" fill="none" stroke-linejoin="round" d="M 2435.465105 2129.733067 L 2485.473101 2009.46888 L 2535.391025 1889.186679 L 2585.344977 2009.46888 L 2635.352974 2129.733067 " stroke="#ffffff" stroke-width="100" stroke-opacity="1" stroke-miterlimit="10"/><path stroke-linecap="round" transform="matrix(0.21684, 0, 0, -0.21684, -55.896102, 866.10888)" fill="none" stroke-linejoin="round" d="M 2635.352974 2129.733067 L 2685.306926 2250.051296 L 2735.278894 2370.279454 L 2785.232846 2250.051296 L 2835.240842 2129.733067 " stroke="#ffffff" stroke-width="100" stroke-opacity="1" stroke-miterlimit="10"/><path stroke-linecap="round" transform="matrix(0.21684, 0, 0, -0.21684, -55.896102, 866.10888)" fill="none" stroke-linejoin="round" d="M 2835.240842 2129.733067 L 2935.148748 1889.186679 L 3035.074668 2129.733067 " stroke="#ffffff" stroke-width="100" stroke-opacity="1" stroke-miterlimit="10"/><path stroke-linecap="round" transform="matrix(0.21684, 0, 0, -0.21684, -55.896102, 866.10888)" fill="none" stroke-linejoin="round" d="M 3035.074668 2129.733067 L 3144.69234 2129.733067 " stroke="#ffffff" stroke-width="100" stroke-opacity="1" stroke-miterlimit="10"/><path stroke-linecap="round" transform="matrix(0.21684, 0, 0, -0.21684, -55.896102, 866.10888)" fill="none" stroke-linejoin="round" d="M 2125.977579 2129.733067 L 2235.631279 2129.733067 " stroke="#ffffff" stroke-width="100" stroke-opacity="1" stroke-miterlimit="10"/><path stroke-linecap="round" transform="matrix(0.21684, 0, 0, -0.21684, -55.896102, 866.10888)" fill="none" stroke-linejoin="round" d="M 2951.559874 2457.000813 C 2946.515839 2699.38467 2745.979452 2891.760531 2503.595595 2886.734511 C 2314.210126 2882.789356 2155.359078 2759.46272 2097.352685 2590.163316 C 2079.410334 2642.549213 2051.39793 2692.431109 2012.883126 2736.530379 C 1853.473632 2919.196474 1576.177853 2937.985501 1393.547786 2778.521964 C 1210.935735 2619.112469 1192.146707 2341.798675 1351.556202 2159.186623 L 2097.460771 1304.817305 L 2430.042768 1687.119067 " stroke="#ffffff" stroke-width="100" stroke-opacity="1" stroke-miterlimit="10"/></svg>