<svg xmlns="http://www.w3.org/2000/svg" xmlns:xlink="http://www.w3.org/1999/xlink" width="1080" zoomAndPan="magnify" viewBox="0 0 810 809.999993" height="1080" preserveAspectRatio="xMidYMid meet" version="1.0"><defs><clipPath id="1d5668c9e6"><path d="M 312.613281 92.722656 L 497.113281 92.722656 L 497.113281 717.472656 L 312.613281 717.472656 Z M 312.613281 92.722656 " clip-rule="nonzero"/></clipPath></defs><g clip-path="url(#1d5668c9e6)"><path fill="#d85948" d="M 451.265625 544.941406 C 478.875 560.867188 497.382812 590.753906 497.382812 624.886719 C 497.382812 675.855469 455.96875 717.269531 405 717.269531 C 354.027344 717.269531 312.613281 675.855469 312.613281 624.886719 C 312.613281 590.753906 331.121094 560.867188 358.730469 544.941406 L 358.730469 138.839844 C 358.730469 113.507812 379.511719 92.722656 404.847656 92.722656 C 430.179688 92.722656 450.964844 113.507812 450.964844 138.839844 L 450.964844 223.1875 L 482.667969 223.1875 L 482.667969 235.019531 L 450.964844 235.019531 L 450.964844 309.652344 L 482.667969 309.652344 L 482.667969 321.488281 L 450.964844 321.488281 L 450.964844 396.121094 L 482.667969 396.121094 L 482.667969 407.957031 L 450.964844 407.957031 L 450.964844 482.589844 L 482.667969 482.589844 L 482.667969 494.421875 L 450.964844 494.421875 L 450.964844 545.394531 Z M 422.898438 562.082031 L 422.898438 371.394531 L 387.097656 371.394531 L 387.097656 562.082031 C 359.640625 569.816406 339.617188 595 339.617188 624.886719 C 339.617188 660.988281 368.894531 690.265625 405 690.265625 C 441.101562 690.265625 470.378906 660.988281 470.378906 624.886719 C 470.378906 595 450.355469 569.816406 422.898438 562.082031 Z M 434.578125 554.496094 L 434.578125 138.839844 C 434.578125 122.609375 421.230469 109.257812 405 109.257812 C 388.765625 109.257812 375.417969 122.609375 375.417969 138.839844 L 375.417969 554.496094 L 367.074219 559.351562 C 343.710938 572.851562 329.148438 597.882812 329.148438 625.035156 C 329.148438 666.90625 363.128906 700.734375 404.847656 700.734375 C 446.714844 700.734375 480.542969 666.753906 480.542969 625.035156 C 480.542969 597.882812 466.132812 573.003906 442.621094 559.351562 L 434.277344 554.496094 Z M 434.578125 554.496094 " fill-opacity="1" fill-rule="evenodd"/></g></svg>